<svg height="480pt" viewBox="0 0 480 480.00687" width="480pt" xmlns="http://www.w3.org/2000/svg"><path d="m264.003906 328.007812v144h208v-144zm80 80h-48v-48h48zm0 0" fill="#78b9eb"/><path d="m96.003906 440.007812h32v32h-32zm0 0" fill="#78b9eb"/><path d="m200.003906 280.007812h-176c-8.824218.027344-15.972656 7.171876-16 16v112h208v-112c-.027344-8.828124-7.175781-15.972656-16-16zm0 0" fill="#78b9eb"/><path d="m128.003906 216.007812h224c35.347656 0 64-28.65625 64-64 0-35.347656-28.652344-64-64-64-.035156-35.988281-24.097656-67.523437-58.796875-77.0625-34.699219-9.539062-71.5 5.269532-89.921875 36.179688-16.160156-9.039062-35.75-9.496094-52.308594-1.214844-16.5625 8.28125-27.953124 24.222656-30.414062 42.578125-33.5 4.121094-58.042969 33.550781-56.074219 67.246094 1.964844 33.699219 29.761719 60.074219 63.515625 60.273437zm0 0" fill="#78b9eb"/><g fill="#006df0"><path d="m472.003906 272.007812h-208c-4.417968 0-8 3.582032-8 8v192c0 4.417969 3.582032 8 8 8h208c4.417969 0 8-3.582031 8-8v-192c0-4.417968-3.582031-8-8-8zm-200 16h192v32h-192zm0 176v-128h192v128zm0 0"/><path d="m288.003906 296.007812h16v16h-16zm0 0"/><path d="m320.003906 296.007812h16v16h-16zm0 0"/><path d="m200.003906 272.007812h-176c-13.253906 0-23.99999975 10.746094-23.99999975 24v128c0 13.253907 10.74609375 24 23.99999975 24h64v16h-24v16h96v-16h-24v-16h64c13.253906 0 24-10.746093 24-24v-128c0-13.253906-10.746094-24-24-24zm-176 16h176c4.417969 0 8 3.582032 8 8v104h-192v-104c0-4.417968 3.582032-8 8-8zm96 176h-16v-16h16zm80-32h-176c-4.417968 0-8-3.582031-8-8v-8h192v8c0 4.417969-3.582031 8-8 8zm0 0"/><path d="m120.003906 223.535156v32.472656h16v-32h208v32h16v-32.472656c36.457032-4.132812 63.972656-35.019531 63.890625-71.707031-.085937-36.6875-27.746093-67.449219-64.21875-71.414063-3.144531-36.71875-28.859375-67.582031-64.410156-77.300781s-73.390625 3.761719-94.78125 33.773438c-17.355469-7.199219-36.996094-6.402344-53.707031 2.183593-16.710938 8.585938-28.796875 24.089844-33.046875 42.390626-34.675781 7.101562-59.050781 38.351562-57.488281 73.714843 1.5625 35.359375 28.59375 64.34375 63.761718 68.359375zm16-15.527344v-48h208v48zm-14.511718-111.585937c3.632812-.421875 6.519531-3.253906 7.007812-6.878906 2.109375-15.730469 11.875-29.394531 26.070312-36.484375 14.199219-7.09375 30.988282-6.691406 44.832032 1.066406 3.789062 2.109375 8.570312.816406 10.777344-2.917969 16.546874-27.875 49.691406-41.246093 80.949218-32.648437 31.257813 8.59375 52.90625 37.03125 52.875 69.449218 0 4.417969 3.582032 8 8 8 29.203125.222657 53.332032 22.855469 55.425782 51.984376 2.089843 29.128906-18.554688 54.976562-47.425782 59.375v-55.359376c0-4.417968-3.582031-8-8-8h-224c-4.417968 0-8 3.582032-8 8v55.359376c-27.824218-4-48.359375-28.019532-47.984375-56.125.378907-28.105469 21.550781-51.570313 49.472657-54.820313zm0 0"/><path d="m32.003906 304.007812h16v16h-16zm0 0"/><path d="m64.003906 304.007812h32v16h-32zm0 0"/><path d="m32.003906 336.007812h96v16h-96zm0 0"/><path d="m288.003906 432.007812h16v16h-16zm0 0"/><path d="m320.003906 432.007812h32v16h-32zm0 0"/><path d="m384.003906 352.007812h64v16h-64zm0 0"/><path d="m384.003906 384.007812h16v16h-16zm0 0"/><path d="m416.003906 384.007812h32v16h-32zm0 0"/><path d="m344.003906 352.007812h-48c-4.417968 0-8 3.582032-8 8v48c0 4.417969 3.582032 8 8 8h48c4.417969 0 8-3.582031 8-8v-48c0-4.417968-3.582031-8-8-8zm-8 48h-32v-32h32zm0 0"/></g></svg>